# xmcd
#
# Track frame offsets: 
#        150
#        17382
#        35647
#        49930
#        65942
#        80377
#        96490
#        110555
#        130292
#        144802
#
# Disc length: 2119 seconds
#
# Revision: 0
# Processed by: cddbd v1.4PL0 Copyright (c) Steve Scherf et al.
# Submitted via: ExactAudioCopy v0.90b4
#
DISCID=8a08450a
DTITLE=Various Artist - Greatest Hit's Of The 90's
DYEAR=1900
DGENRE=Country
TTITLE0=Honky Tonk Attitude
TTITLE1=Cold Day In July
TTITLE2=Made For Lovin You
TTITLE3=I Got A Love
TTITLE4=Just As I'am
TTITLE5=Blame It On Your Heart
TTITLE6=Somebody's Elses Moon
TTITLE7=The Hard Way
TTITLE8=Why Didnt I Think Of That
TTITLE9=Texas Tattoo
EXTD=
EXTT0=
EXTT1=
EXTT2=
EXTT3=
EXTT4=
EXTT5=
EXTT6=
EXTT7=
EXTT8=
EXTT9=
PLAYORDER=
